<svg xmlns="http://www.w3.org/2000/svg" width="69.642" height="66" viewBox="0 0 69.642 66"><g transform="translate(1 -10)"><g transform="translate(0 26.382)"><path d="M0,134v43.333a5.291,5.291,0,0,0,5.285,5.285H62.358a5.291,5.291,0,0,0,5.285-5.285V134Z" transform="translate(0 -134)" fill="none" stroke="#f37022" stroke-width="2"/></g><g transform="translate(0 11.585)"><path d="M62.358,22H5.285A5.291,5.291,0,0,0,0,27.285V36.8H67.642V27.285A5.291,5.291,0,0,0,62.358,22ZM8.455,32.569A3.171,3.171,0,1,1,11.626,29.4,3.171,3.171,0,0,1,8.455,32.569Zm50.732,0A3.171,3.171,0,1,1,62.358,29.4,3.171,3.171,0,0,1,59.187,32.569Z" transform="translate(0 -22)" fill="#f37022" stroke="#f37022" stroke-width="2"/></g><g transform="translate(8.455 35.894)"><g transform="translate(21.138 0)"><path d="M228.228,206a4.228,4.228,0,1,0,4.228,4.228A4.232,4.232,0,0,0,228.228,206Z" transform="translate(-224 -206)" fill="#fff"/></g><g transform="translate(10.569 0)"><path d="M148.228,206a4.228,4.228,0,1,0,4.228,4.228A4.232,4.232,0,0,0,148.228,206Z" transform="translate(-144 -206)" fill="#fff"/></g><g transform="translate(0 0)"><path d="M68.228,206a4.228,4.228,0,1,0,4.228,4.228A4.232,4.232,0,0,0,68.228,206Z" transform="translate(-64 -206)" fill="#fff"/></g><g transform="translate(31.707 0)"><path d="M308.228,206a4.228,4.228,0,1,0,4.228,4.228A4.232,4.232,0,0,0,308.228,206Z" transform="translate(-304 -206)" fill="#fff"/></g><g transform="translate(42.276 0)"><path d="M388.228,214.455A4.228,4.228,0,1,0,384,210.228,4.232,4.232,0,0,0,388.228,214.455Z" transform="translate(-384 -206)" fill="#fff"/></g><g transform="translate(21.138 10.569)"><path d="M228.228,286a4.228,4.228,0,1,0,4.228,4.228A4.232,4.232,0,0,0,228.228,286Z" transform="translate(-224 -286)" fill="#fff"/></g><g transform="translate(10.569 10.569)"><path d="M148.228,286a4.228,4.228,0,1,0,4.228,4.228A4.232,4.232,0,0,0,148.228,286Z" transform="translate(-144 -286)" fill="#fff"/></g><g transform="translate(0 10.569)"><path d="M68.228,286a4.228,4.228,0,1,0,4.228,4.228A4.232,4.232,0,0,0,68.228,286Z" transform="translate(-64 -286)" fill="#fff"/></g><g transform="translate(31.707 10.569)"><path d="M308.228,286a4.228,4.228,0,1,0,4.228,4.228A4.232,4.232,0,0,0,308.228,286Z" transform="translate(-304 -286)" fill="#fff"/></g><g transform="translate(42.276 10.569)"><path d="M388.228,286a4.228,4.228,0,1,0,4.228,4.228A4.232,4.232,0,0,0,388.228,286Z" transform="translate(-384 -286)" fill="#fff"/></g><g transform="translate(21.138 21.138)"><path d="M228.228,366a4.228,4.228,0,1,0,4.228,4.228A4.232,4.232,0,0,0,228.228,366Z" transform="translate(-224 -366)" fill="#fff"/></g><g transform="translate(10.569 21.138)"><path d="M148.228,366a4.228,4.228,0,1,0,4.228,4.228A4.232,4.232,0,0,0,148.228,366Z" transform="translate(-144 -366)" fill="#fff"/></g><g transform="translate(0 21.138)"><path d="M68.228,366a4.228,4.228,0,1,0,4.228,4.228A4.232,4.232,0,0,0,68.228,366Z" transform="translate(-64 -366)" fill="#fff"/></g><g transform="translate(31.707 21.138)"><path d="M308.228,366a4.228,4.228,0,1,0,4.228,4.228A4.232,4.232,0,0,0,308.228,366Z" transform="translate(-304 -366)" fill="#fff"/></g><g transform="translate(42.276 21.138)"><path d="M388.228,366a4.228,4.228,0,1,0,4.228,4.228A4.232,4.232,0,0,0,388.228,366Z" transform="translate(-384 -366)" fill="#fff"/></g></g><g transform="translate(6.87 10)"><g transform="translate(0 0)"><path d="M53.585,20.569A1.585,1.585,0,0,1,52,18.984v-7.4a1.585,1.585,0,1,1,3.171,0v7.4A1.585,1.585,0,0,1,53.585,20.569Z" transform="translate(-52 -10)" fill="#e65600"/></g></g><g transform="translate(57.602 10)"><g transform="translate(0 0)"><path d="M437.585,20.569A1.585,1.585,0,0,1,436,18.984v-7.4a1.585,1.585,0,1,1,3.171,0v7.4A1.585,1.585,0,0,1,437.585,20.569Z" transform="translate(-436 -10)" fill="#e65600"/></g></g><g transform="translate(8.455 35.894)"><circle cx="4.228" cy="4.228" r="4.228" transform="translate(0 0)" fill="#ffa169"/></g><g transform="translate(29.593 57.033)"><circle cx="4.228" cy="4.228" r="4.228" fill="#f37022"/></g><g transform="translate(40.163 46.463)"><circle cx="4.228" cy="4.228" r="4.228" fill="#e65600"/></g></g></svg>