<svg xmlns="http://www.w3.org/2000/svg" xmlns:xlink="http://www.w3.org/1999/xlink" width="24" height="24" viewBox="0 0 24 24"><defs><clipPath id="a"><circle cx="12" cy="12" r="12" transform="translate(323 413)" fill="none" stroke="#f37022" stroke-width="0.5"/></clipPath></defs><g transform="translate(-323 -413)" clip-path="url(#a)"><g transform="translate(256.555 416.999)"><g transform="translate(71.445 0.001)"><path d="M84.99,14.329a1.977,1.977,0,0,0-1.506-1.547h0l-3.021-.749v-.106H82.77a.864.864,0,0,0,.863-.863v-4.4a1.078,1.078,0,0,0,0-.5V4.559a.293.293,0,1,0-.586,0V5.4a1.521,1.521,0,0,0-.522-.191.764.764,0,0,0-.644-.589.955.955,0,0,1-.755-.581.5.5,0,0,0-.856-.078,5.361,5.361,0,0,1-4.322,2.223c-.184,0-.309-.009-.352-.011a.775.775,0,0,0-.82.773v.673A3.974,3.974,0,0,0,76,10.481a3.924,3.924,0,0,0,.846.616v.244h-2.3a.277.277,0,0,1-.277-.277V4.48A3.891,3.891,0,0,1,78.116.587h.02a4.993,4.993,0,0,1,2.215.545c.376.207.608.043.978.043a1.95,1.95,0,0,1,1.718,1.768c0,.012,0,.061,0,.249a.3.3,0,0,0,.293.293.293.293,0,0,0,.293-.293c0-.052,0-.256,0-.3a2.527,2.527,0,0,0-2.3-2.3c-.464,0-.537.118-.7.03A5.623,5.623,0,0,0,78.139,0,4.476,4.476,0,0,0,73.687,4.48v6.584a.864.864,0,0,0,.863.863h2.3v.106l-3.009.746-.012,0-.22.065-.02.006a1.944,1.944,0,0,0-1.267,1.476c-.892,4.48-.854,4.288-.856,4.3A1.1,1.1,0,0,0,72.651,20H75.82a.293.293,0,0,0,0-.586h-1.1V16.651a.293.293,0,1,0-.586,0v2.764h-1.48c-.389,0-.615-.125-.619-.534,0-.2-.009-.005.862-4.437a1.373,1.373,0,0,1,.888-1.038l.2-.06,1.728-.428c1.922,2.265,1.809,2.145,1.92,2.253a1.42,1.42,0,0,0,2.16-.126l1.81-2.126,1.722.427a1.42,1.42,0,0,1,1.091,1.1c.864,4.393.864,4.236.862,4.437,0,.4-.22.534-.619.534H83.189V16.651a.293.293,0,1,0-.586,0v2.764H77.187a.293.293,0,0,0,0,.586h7.472a1.077,1.077,0,0,0,1.205-1.116C85.866,18.55,85.846,18.71,84.99,14.329ZM82.544,5.813a.735.735,0,0,1,.5.433v.336a.735.735,0,0,1-.5.433Zm0,1.857V7.616a1.518,1.518,0,0,0,.5-.188v3.636a.277.277,0,0,1-.277.277H80.463v-.226A3.879,3.879,0,0,0,82.544,7.67Zm-6.139,2.387a3.386,3.386,0,0,1-1.043-2.438c.017-.638-.042-.715.06-.811a.185.185,0,0,1,.139-.051,5.886,5.886,0,0,0,5.1-2.344A1.5,1.5,0,0,0,81.8,5.2a.176.176,0,0,1,.153.174v2.3A3.291,3.291,0,0,1,76.405,10.057Zm2.942,4.607a.848.848,0,0,1-1.387,0l-.611-.722h2.615Zm1.115-1.31h-3.61l-.5-.594.862-.214a.3.3,0,0,0,.223-.287v-.906a3.881,3.881,0,0,0,2.443.008,5.241,5.241,0,0,0,.016,1,.293.293,0,0,0,.206.188l.868.215Z" transform="translate(-71.445 -0.001)" fill="#f37022"/></g></g><g transform="translate(323 413)" fill="none" stroke="#f37022" stroke-width="0.5"><circle cx="12" cy="12" r="12" stroke="none"/><circle cx="12" cy="12" r="11.75" fill="none"/></g></g></svg>