<svg xmlns="http://www.w3.org/2000/svg" xmlns:xlink="http://www.w3.org/1999/xlink" width="24" height="24" viewBox="0 0 24 24"><defs><clipPath id="a"><circle cx="12" cy="12" r="12" transform="translate(366 413)" fill="none" stroke="#f37022" stroke-width="0.5"/></clipPath></defs><g transform="translate(-366 -413)" clip-path="url(#a)"><g transform="translate(299.572 416.999)"><g transform="translate(79.602 16.361)"><g transform="translate(0)"><path d="M282.408,418.809h-1.123a.621.621,0,0,0-.62.62v.778a1.115,1.115,0,0,0,1.171,1.044h.02a1.115,1.115,0,0,0,1.171-1.044v-.778A.62.62,0,0,0,282.408,418.809Zm.034,1.4a.541.541,0,0,1-.585.458h-.02a.541.541,0,0,1-.585-.458c.014-.745-.031-.812.034-.812h1.123a.034.034,0,0,1,.034.034Z" transform="translate(-280.665 -418.809)" fill="#f37022"/></g></g><g transform="translate(71.428 0.001)"><g transform="translate(0 0)"><path d="M85.825,18.617,85.5,16.963a.293.293,0,1,0-.575.114l.328,1.646a.714.714,0,0,1-.1.527c-.229.263-.72.128-1.976.164V16.653a.293.293,0,1,0-.586,0v2.761H74.7V16.653a.293.293,0,1,0-.586,0v2.761h-1.48c-.475,0-.673-.209-.609-.692l.852-4.278a1.416,1.416,0,0,1,1.091-1.1l2.921-.72a1.81,1.81,0,0,0,3.5,0l2.92.724a1.42,1.42,0,0,1,1.091,1.1l.253,1.272a.293.293,0,1,0,.575-.114l-.253-1.272A1.944,1.944,0,0,0,83.7,12.854c-.206-.076-1.159-.293-3.26-.82v-.452a3.879,3.879,0,0,0,2.081-3.443V8.085A1.194,1.194,0,0,0,83.4,6.2V4.116a3.5,3.5,0,0,0-.3-1.3A3.07,3.07,0,0,0,80.943,1.05,4,4,0,0,1,79.177.212a.8.8,0,0,0-1.08,0,4,4,0,0,1-1.766.838,3.2,3.2,0,0,0-1.481.794.293.293,0,0,0,.407.421,2.627,2.627,0,0,1,1.215-.647A4.57,4.57,0,0,0,78.492.644a.213.213,0,0,1,.289,0,4.57,4.57,0,0,0,2.021.974,2.624,2.624,0,0,1,2.013,2.5V5.764a1.548,1.548,0,0,0-.29-.083,1.227,1.227,0,0,0-.562-1.264h0a7.248,7.248,0,0,0-6.637-.051,1.029,1.029,0,0,0-.567.924v.392a1.55,1.55,0,0,0-.3.087,7.037,7.037,0,0,1,.152-2.453.293.293,0,0,0-.556-.186,3.406,3.406,0,0,0-.182.987V6.21a1.2,1.2,0,0,0,.886,1.875,4.018,4.018,0,0,0,1.225,2.865,3.923,3.923,0,0,0,.846.616v.473l-3.021.745A1.982,1.982,0,0,0,72.3,14.33l-.854,4.287c0,.005,0,.011,0,.016A1.1,1.1,0,0,0,72.634,20H84.64a1.194,1.194,0,0,0,.949-.366A1.257,1.257,0,0,0,85.825,18.617Zm-3.3-12.335a.606.606,0,0,1,0,1.2Zm-7.767,1.2a.606.606,0,0,1,0-1.2Zm5.1,4.76a1.221,1.221,0,0,1-2.437.005c-.006-.087,0-.238,0-.427a3.9,3.9,0,0,0,2.443.006C79.857,12.031,79.861,12.161,79.856,12.244ZM75.344,8.088v-2.8a.446.446,0,0,1,.246-.4,6.824,6.824,0,0,1,3.023-.718,6.659,6.659,0,0,1,3.082.767.45.45,0,0,1,.245.4v2.8a3.269,3.269,0,0,1-1.923,2.991A3.3,3.3,0,0,1,75.344,8.088Z" transform="translate(-71.428 -0.001)" fill="#f37022"/></g></g></g><g transform="translate(366 413)" fill="none" stroke="#f37022" stroke-width="0.5"><circle cx="12" cy="12" r="12" stroke="none"/><circle cx="12" cy="12" r="11.75" fill="none"/></g></g></svg>